#!OML:ASF I:\Actors\actors\Patient Classification 1\Patient 1\Session 1\Subject1.ASF
:FULLY-SPECIFIED
:DEGREES
597
root -0.331798 17.6125 8.38993 12.9735 11.4207 -6.56977
lowerback 5.14744 2.8829 5.80955
upperback -10.6312 5.07045 2.69335
thorax -14.3803 1.99605 -1.12398
lowerneck -8.34854 -12.7736 -6.86398
upperneck 7.79341 -16.6925 3.64421
head 4.54855 -8.23828 1.00127
rclavicle 3.81667e-014 -5.56597e-015
rhumerus 45.1969 -18.5945 -57.5379
rradius 43.6322
rwrist 36.5711
rhand -26.6642 -45.4754
rfingers 7.12502
rthumb -0.0957442 -75.4551
lclavicle 3.81667e-014 -5.56597e-015
lhumerus -49.1662 -15.3642 97.1395
lradius 65.5503
lwrist 10.6107
lhand -18.3514 -15.2999
lfingers 7.12502
lthumb 7.93118 14.5313
rfemur -1.37205 31.5646 22.9582
rtibia -2.37577
rfoot -24.7217 -41.9245
rtoes 18.1203
lfemur -2.8544 -54.2692 -8.01446
ltibia -5.24303
lfoot -17.0795 54.8324
ltoes 7.37079
598
root -0.351085 17.612 8.40128 12.9848 11.5291 -6.56959
lowerback 5.0503 2.83886 5.76305
upperback -10.6986 5.00902 2.74838
thorax -14.4134 1.97546 -1.02313
lowerneck -8.11216 -12.6904 -6.94369
upperneck 7.71852 -16.5883 3.67729
head 4.49184 -8.19239 1.04902
rclavicle -7.44449e-014 -6.87795e-014
rhumerus 45.9396 -19.6591 -58.7948
rradius 43.3124
rwrist 33.4548
rhand -25.565 -47.706
rfingers 7.12502
rthumb 0.965894 -77.6836
lclavicle -7.44449e-014 -6.87795e-014
lhumerus -49.2463 -15.5969 97.3011
lradius 65.6822
lwrist 10.5824
lhand -18.0296 -15.4152
lfingers 7.12502
lthumb 8.24175 14.404
rfemur -1.25102 31.8624 23.1227
rtibia -2.44264
rfoot -25.1343 -42.2137
rtoes 18.6803
lfemur -3.00005 -54.4599 -7.8089
ltibia -5.15654
lfoot -16.9521 54.9553
ltoes 6.97566
599
root -0.367856 17.6121 8.41167 12.9931 11.7338 -6.53382
lowerback 4.94702 2.78177 5.79527
upperback -10.7507 4.93416 2.77665
thorax -14.4159 1.93891 -0.992228
lowerneck -7.91649 -12.645 -7.00078
upperneck 7.58408 -16.5188 3.5819
head 4.41174 -8.16902 1.05346
rclavicle 2.04251e-014 1.07344e-014
rhumerus 46.7909 -20.6765 -60.0341
rradius 43.2901
rwrist 29.9871
rhand -25.0991 -49.8085
rfingers 7.12502
rthumb 1.41583 -79.7835
lclavicle 2.04251e-014 1.07344e-014
lhumerus -49.2776 -15.884 97.4835
lradius 65.8024
lwrist 10.6722
lhand -17.9236 -15.6031
lfingers 7.12502
lthumb 8.34405 14.2121
rfemur -1.06769 32.3066 23.2674
rtibia -2.58306
rfoot -25.6107 -42.7437
rtoes 19.2025
lfemur -3.21673 -54.7493 -7.58019
ltibia -5.07661
lfoot -16.7981 55.1226
ltoes 6.61556
600
root -0.381681 17.6127 8.41953 12.9661 12.006 -6.53341
lowerback 4.88191 2.66848 5.95921
upperback -10.7673 4.80139 2.82866
thorax -14.3966 1.86258 -0.999695
lowerneck -7.86682 -12.6021 -6.92474
upperneck 7.44974 -16.4303 3.22058
head 4.32042 -8.14364 0.956498
rclavicle 6.4605e-016 3.22031e-014
rhumerus 47.7968 -21.4376 -61.2084
rradius 43.4941
rwrist 27.7616
rhand -24.9878 -51.2893
rfingers 7.12502
rthumb 1.52336 -81.2636
lclavicle 6.4605e-016 3.22031e-014
lhumerus -49.225 -16.0386 97.5828
lradius 65.9572
lwrist 10.6909
lhand -17.8461 -15.6651
lfingers 7.12502
lthumb 8.41883 14.1471
rfemur -0.859846 32.7039 23.4629
rtibia -2.69499
rfoot -26.1197 -43.2387
rtoes 19.5556
lfemur -3.42396 -55.1086 -7.33918
ltibia -4.97153
lfoot -16.8202 55.2966
ltoes 6.53943
601
root -0.393596 17.6121 8.42514 12.9218 12.2722 -6.61083
lowerback 4.84055 2.55105 6.21724
upperback -10.7845 4.68252 2.92833
thorax -14.3925 1.78547 -1.0098
lowerneck -7.87285 -12.5364 -6.9024
upperneck 7.48712 -16.3011 2.79466
head 4.28864 -8.10154 0.841161
rclavicle -1.10325e-014 1.19271e-014
rhumerus 48.6981 -21.816 -61.8936
rradius 43.8747
rwrist 27.0316
rhand -24.9179 -51.8403
rfingers 7.12502
rthumb 1.59088 -81.8141
lclavicle -1.10325e-014 1.19271e-014
lhumerus -49.1322 -16.0538 97.6562
lradius 66.0933
lwrist 10.5721
lhand -17.6981 -15.6561
lfingers 7.12502
lthumb 8.56169 14.1503
rfemur -0.704204 32.9514 23.7206
rtibia -2.74895
rfoot -26.5568 -43.5884
rtoes 19.8812
lfemur -3.57884 -54.8289 -7.08534
ltibia -4.9785
lfoot -16.2637 54.9178
ltoes 6.1096
